<svg width="19" height="20" viewBox="0 0 19 20" fill="none" xmlns="http://www.w3.org/2000/svg">
<path d="M0.5 8.5C0.5 6.60025 0.501062 5.22573 0.641988 4.17754C0.78098 3.14373 1.04772 2.50253 1.52513 2.02513C2.00253 1.54772 2.64373 1.28098 3.67754 1.14199C4.72573 1.00106 6.10025 1 8 1H11C12.8998 1 14.2743 1.00106 15.3225 1.14199C16.3563 1.28098 16.9975 1.54772 17.4749 2.02513C17.9523 2.50253 18.219 3.14373 18.358 4.17754C18.4989 5.22573 18.5 6.60025 18.5 8.5V11.5C18.5 13.3998 18.4989 14.7743 18.358 15.8225C18.219 16.8563 17.9523 17.4975 17.4749 17.9749C16.9975 18.4523 16.3563 18.719 15.3225 18.858C14.2743 18.9989 12.8998 19 11 19H8C6.10025 19 4.72573 18.9989 3.67754 18.858C2.64373 18.719 2.00253 18.4523 1.52513 17.9749C1.04772 17.4975 0.78098 16.8563 0.641988 15.8225C0.501062 14.7743 0.5 13.3998 0.5 11.5V8.5Z" stroke="white"/>
<path d="M9.5 5.77783L9.5 14.2223" stroke="white" stroke-linejoin="round"/>
<path d="M13.7222 10L5.27772 10" stroke="white" stroke-linejoin="round"/>
</svg>
