<svg width="150" height="180" viewBox="0 0 150 180" fill="none" xmlns="http://www.w3.org/2000/svg">
<g clip-path="url(#clip0_907_38913)">
<path d="M32.7067 159.878C32.3388 159.34 31.7727 159.057 30.9801 159.057C30.3574 159.057 29.8479 159.199 29.5082 159.51C29.1686 159.821 28.8855 160.303 28.6591 160.925L25.2341 170.974L21.8941 160.925C21.6677 160.246 21.3846 159.765 21.0449 159.482C20.7053 159.199 20.2524 159.029 19.6863 159.029C19.1202 159.029 18.6673 159.17 18.2993 159.482C17.9313 159.793 17.6483 160.246 17.3935 160.925L13.912 170.719L10.6569 160.925C10.4587 160.303 10.1757 159.821 9.80771 159.51C9.43974 159.199 8.93025 159.057 8.27922 159.057C7.34515 159.057 6.69412 159.34 6.32615 159.878C5.95819 160.416 5.90157 161.095 6.15632 161.859L11.1664 175.842C11.3928 176.493 11.7325 176.974 12.1288 177.286C12.525 177.597 13.0345 177.739 13.6855 177.739C14.3649 177.739 14.8744 177.597 15.2423 177.286C15.6103 176.974 15.9217 176.521 16.1481 175.87L19.5448 166.53L22.8565 175.842C23.0829 176.493 23.3943 176.974 23.7906 177.286C24.1868 177.597 24.6963 177.739 25.319 177.739C25.9701 177.739 26.4796 177.597 26.8758 177.286C27.2721 176.974 27.5835 176.521 27.8099 175.87L32.82 161.859C33.103 161.095 33.0747 160.416 32.7067 159.878Z" fill="white"/>
<path d="M43.9155 166.274C43.3777 165.708 42.7266 165.255 41.9341 164.944C41.1698 164.633 40.2924 164.491 39.3583 164.491C38.0846 164.491 36.924 164.774 35.9334 165.34C34.9144 165.906 34.1501 166.699 33.5557 167.69C32.9896 168.68 32.7065 169.841 32.7065 171.143C32.7065 172.445 33.0179 173.662 33.6123 174.653C34.2067 175.644 35.0842 176.408 36.1881 176.974C37.3203 177.512 38.6507 177.795 40.2075 177.795C40.8868 177.795 41.5661 177.71 42.2454 177.568C42.9248 177.427 43.5475 177.2 44.1419 176.946C44.5665 176.776 44.8495 176.521 45.0194 176.238C45.1892 175.927 45.2741 175.587 45.2458 175.247C45.2175 174.908 45.1043 174.596 44.9344 174.341C44.7646 174.087 44.5099 173.889 44.1702 173.775C43.8305 173.662 43.4626 173.69 43.0097 173.86C42.5568 174.03 42.1039 174.172 41.5944 174.257C41.1132 174.341 40.6603 174.398 40.2924 174.398C39.1602 174.398 38.311 174.143 37.7732 173.634C37.4052 173.294 37.1788 172.785 37.0656 172.134H44.3966C44.7929 172.134 45.076 172.049 45.2741 171.879C45.4722 171.709 45.5572 171.454 45.5572 171.143C45.5572 170.124 45.4156 169.218 45.1326 168.426C44.8495 167.633 44.425 166.925 43.8872 166.359L43.9155 166.274ZM38.1978 167.831C38.5941 167.576 39.0469 167.463 39.5847 167.463C40.0942 167.463 40.4905 167.548 40.8302 167.746C41.1698 167.944 41.4246 168.256 41.5944 168.652C41.7359 168.963 41.7926 169.388 41.8209 169.869H37.0656C37.1222 169.53 37.1788 169.19 37.292 168.907C37.4901 168.426 37.7732 168.058 38.1695 167.803L38.1978 167.831Z" fill="white"/>
<path d="M63.0784 173.351C62.8237 173.039 62.5123 172.813 62.0877 172.728C61.6632 172.643 61.2103 172.7 60.7291 172.926C60.2196 173.181 59.7384 173.351 59.2289 173.436C58.7194 173.549 58.2382 173.577 57.757 173.577C56.7097 173.577 55.8323 173.379 55.1246 172.983C54.417 172.587 53.8792 171.992 53.5112 171.228C53.1433 170.464 52.9734 169.501 52.9734 168.369C52.9734 167.237 53.1433 166.274 53.5112 165.51C53.8792 164.746 54.417 164.152 55.1246 163.755C55.8323 163.359 56.7097 163.161 57.757 163.161C58.2948 163.161 58.8326 163.218 59.3421 163.331C59.8516 163.444 60.3611 163.614 60.8706 163.897C61.3235 164.123 61.7481 164.208 62.1444 164.067C62.5123 163.953 62.8237 163.727 63.0784 163.416C63.3049 163.104 63.4747 162.736 63.5313 162.312C63.5879 161.887 63.5313 161.491 63.3615 161.066C63.1916 160.642 62.852 160.33 62.3425 160.076C61.6915 159.736 60.9272 159.453 60.0781 159.283C59.2289 159.085 58.4081 159 57.6438 159C56.1436 159 54.785 159.226 53.5961 159.679C52.4073 160.132 51.3883 160.783 50.5392 161.576C49.69 162.397 49.0673 163.359 48.6144 164.52C48.1898 165.652 47.9634 166.954 47.9634 168.369C47.9634 170.266 48.3597 171.936 49.1239 173.323C49.9164 174.709 51.0204 175.813 52.4639 176.606C53.9075 177.398 55.6341 177.766 57.6438 177.766C58.493 177.766 59.3704 177.653 60.2479 177.455C61.1254 177.229 61.8613 176.946 62.484 176.578C62.9369 176.351 63.2483 176.012 63.4181 175.615C63.5879 175.219 63.6445 174.823 63.5879 174.426C63.5313 174.03 63.3615 173.662 63.1067 173.351H63.0784Z" fill="white" fill-opacity="0.5"/>
<path d="M75.4197 165.284C74.3724 164.746 73.1552 164.491 71.74 164.491C70.6644 164.491 69.702 164.633 68.8528 164.944C68.0037 165.255 67.2677 165.68 66.645 166.274C66.0223 166.869 65.5411 167.548 65.2297 168.369C64.9184 169.19 64.7485 170.096 64.7485 171.143C64.7485 172.502 65.0316 173.69 65.626 174.681C66.2204 175.7 67.013 176.464 68.0603 176.974C69.1076 177.512 70.3247 177.766 71.74 177.766C72.7873 177.766 73.7496 177.625 74.5988 177.314C75.448 177.002 76.1839 176.578 76.8066 175.983C77.4293 175.389 77.9105 174.681 78.2219 173.889C78.5332 173.068 78.7031 172.162 78.7031 171.143C78.7031 169.756 78.42 168.595 77.8539 167.576C77.2878 166.586 76.467 165.822 75.4197 165.284ZM73.7779 172.983C73.5798 173.464 73.2968 173.804 72.9288 174.03C72.5891 174.257 72.1645 174.341 71.7117 174.341C71.004 174.341 70.4379 174.087 69.985 173.577C69.5321 173.068 69.3057 172.247 69.3057 171.115C69.3057 170.35 69.4189 169.728 69.6171 169.247C69.8152 168.765 70.0982 168.426 70.4662 168.199C70.8342 167.973 71.2305 167.86 71.7117 167.86C72.391 167.86 72.9571 168.114 73.41 168.624C73.8629 169.133 74.0893 169.954 74.0893 171.115C74.0893 171.879 73.9761 172.502 73.7779 172.983Z" fill="white" fill-opacity="0.5"/>
<path d="M91.3555 165.086C90.7045 164.689 89.8836 164.491 88.8646 164.491C87.8456 164.491 87.0248 164.718 86.2605 165.142C85.6378 165.51 85.1283 166.02 84.7604 166.642C84.7321 166.02 84.5622 165.51 84.2226 165.142C83.8263 164.746 83.2885 164.548 82.5809 164.548C81.8732 164.548 81.3071 164.746 80.9108 165.142C80.5146 165.539 80.3447 166.105 80.3447 166.869V175.417C80.3447 176.153 80.5429 176.719 80.9108 177.144C81.3071 177.54 81.8732 177.738 82.6375 177.738C84.166 177.738 84.9302 176.974 84.9302 175.417V170.435C84.9302 169.699 85.1283 169.105 85.5529 168.68C85.9775 168.256 86.5153 168.029 87.1946 168.029C87.7041 168.029 88.1004 168.199 88.3551 168.539C88.6099 168.879 88.7514 169.416 88.7514 170.181V175.445C88.7514 176.181 88.9496 176.747 89.3458 177.172C89.7421 177.568 90.3082 177.766 91.0441 177.766C91.7801 177.766 92.3462 177.568 92.7425 177.172C93.1387 176.776 93.3369 176.21 93.3369 175.445V170.011C93.3369 168.765 93.167 167.718 92.8557 166.925C92.5443 166.133 92.0348 165.539 91.3838 165.114L91.3555 165.086Z" fill="white" fill-opacity="0.5"/>
<path d="M106.442 165.086C105.791 164.689 104.971 164.491 103.952 164.491C102.933 164.491 102.112 164.718 101.347 165.142C100.725 165.51 100.215 166.02 99.8473 166.642C99.819 166.02 99.6491 165.51 99.3095 165.142C98.9132 164.746 98.3754 164.548 97.6678 164.548C96.9601 164.548 96.394 164.746 95.9977 165.142C95.6015 165.539 95.4316 166.105 95.4316 166.869V175.417C95.4316 176.153 95.6298 176.719 95.9977 177.144C96.394 177.54 96.9601 177.738 97.7244 177.738C99.2529 177.738 100.017 176.974 100.017 175.417V170.435C100.017 169.699 100.215 169.105 100.64 168.68C101.064 168.256 101.602 168.029 102.282 168.029C102.791 168.029 103.187 168.199 103.442 168.539C103.697 168.879 103.838 169.416 103.838 170.181V175.445C103.838 176.181 104.036 176.747 104.433 177.172C104.829 177.568 105.395 177.766 106.131 177.766C106.867 177.766 107.433 177.568 107.829 177.172C108.226 176.776 108.424 176.21 108.424 175.445V170.011C108.424 168.765 108.254 167.718 107.943 166.925C107.631 166.133 107.122 165.539 106.471 165.114L106.442 165.086Z" fill="white" fill-opacity="0.5"/>
<path d="M121.642 166.274C121.104 165.708 120.453 165.255 119.661 164.944C118.896 164.633 118.019 164.491 117.085 164.491C115.811 164.491 114.651 164.774 113.66 165.34C112.641 165.906 111.877 166.699 111.282 167.69C110.716 168.68 110.433 169.841 110.433 171.143C110.433 172.445 110.744 173.662 111.339 174.653C111.933 175.644 112.811 176.408 113.915 176.974C115.047 177.512 116.377 177.795 117.934 177.795C118.613 177.795 119.293 177.71 119.972 177.568C120.651 177.427 121.274 177.2 121.868 176.946C122.293 176.776 122.576 176.521 122.746 176.238C122.916 175.927 123.001 175.587 122.972 175.247C122.944 174.908 122.831 174.596 122.661 174.341C122.491 174.087 122.236 173.889 121.897 173.775C121.557 173.662 121.189 173.69 120.736 173.86C120.283 174.03 119.83 174.172 119.321 174.257C118.84 174.341 118.387 174.398 118.019 174.398C116.887 174.398 116.038 174.143 115.5 173.634C115.132 173.294 114.905 172.785 114.792 172.134H122.123C122.519 172.134 122.803 172.049 123.001 171.879C123.199 171.709 123.284 171.454 123.284 171.143C123.284 170.124 123.142 169.218 122.859 168.426C122.576 167.633 122.152 166.925 121.614 166.359L121.642 166.274ZM115.896 167.831C116.292 167.576 116.745 167.463 117.283 167.463C117.792 167.463 118.189 167.548 118.528 167.746C118.868 167.944 119.123 168.256 119.293 168.652C119.434 168.963 119.491 169.388 119.519 169.869H114.764C114.82 169.53 114.877 169.19 114.99 168.907C115.188 168.426 115.471 168.058 115.868 167.803L115.896 167.831Z" fill="white" fill-opacity="0.5"/>
<path d="M130.134 168.794C130.36 168.511 130.672 168.312 131.011 168.171C131.351 168.029 131.776 167.944 132.2 167.944C132.483 167.944 132.795 167.973 133.078 168.058C133.361 168.143 133.672 168.228 133.927 168.397C134.323 168.567 134.663 168.596 134.974 168.482C135.285 168.369 135.54 168.171 135.738 167.888C135.936 167.605 136.05 167.293 136.05 166.925C136.05 166.558 135.993 166.218 135.823 165.906C135.653 165.595 135.37 165.34 134.974 165.199C134.38 164.944 133.814 164.774 133.276 164.661C132.738 164.548 132.2 164.52 131.691 164.52C130.615 164.52 129.653 164.661 128.803 164.972C127.926 165.284 127.19 165.708 126.567 166.274C125.945 166.841 125.463 167.52 125.124 168.341C124.784 169.162 124.643 170.067 124.643 171.115C124.643 172.473 124.926 173.662 125.52 174.653C126.114 175.672 126.935 176.436 127.983 176.974C129.03 177.512 130.275 177.795 131.691 177.795C132.2 177.795 132.71 177.738 133.247 177.653C133.785 177.54 134.351 177.37 134.917 177.115C135.342 176.974 135.625 176.747 135.767 176.436C135.908 176.125 135.993 175.785 135.993 175.417C135.993 175.049 135.88 174.709 135.71 174.426C135.512 174.143 135.285 173.945 134.974 173.832C134.663 173.719 134.323 173.747 133.927 173.945C133.644 174.087 133.361 174.172 133.078 174.228C132.766 174.285 132.483 174.313 132.2 174.313C131.294 174.313 130.615 174.03 130.106 173.464C129.596 172.898 129.37 172.134 129.37 171.143C129.37 170.633 129.426 170.181 129.568 169.784C129.709 169.388 129.879 169.077 130.134 168.794Z" fill="white" fill-opacity="0.5"/>
<path d="M148.759 174.143C148.589 173.974 148.363 173.86 148.079 173.86C147.881 173.86 147.683 173.917 147.457 173.974C147.23 174.03 147.004 174.058 146.749 174.058C146.098 174.058 145.617 173.917 145.334 173.606C145.051 173.294 144.909 172.841 144.909 172.19V168.143H147.032C147.57 168.143 148.023 168.001 148.306 167.718C148.617 167.435 148.759 167.01 148.759 166.473C148.759 165.907 148.617 165.482 148.306 165.199C147.995 164.916 147.57 164.774 147.032 164.774H144.909V163.161C144.909 162.425 144.711 161.859 144.315 161.434C143.919 161.038 143.352 160.84 142.617 160.84C141.881 160.84 141.314 161.038 140.918 161.434C140.522 161.831 140.324 162.397 140.324 163.161V164.774H139.475C138.937 164.774 138.484 164.916 138.173 165.199C137.861 165.482 137.691 165.907 137.691 166.473C137.691 167.01 137.861 167.407 138.173 167.718C138.484 168.001 138.937 168.143 139.475 168.143H140.324V172.332C140.324 173.521 140.522 174.54 140.947 175.332C141.371 176.125 141.994 176.719 142.815 177.144C143.664 177.54 144.711 177.738 145.985 177.738C146.24 177.738 146.579 177.71 146.976 177.653C147.372 177.597 147.711 177.512 147.966 177.398C148.363 177.257 148.646 177.002 148.815 176.634C148.985 176.295 149.07 175.842 149.07 175.332C149.07 174.709 148.985 174.285 148.787 174.115L148.759 174.143Z" fill="white" fill-opacity="0.5"/>
<path d="M137.036 118.323C136.81 117.842 136.838 117.276 137.178 116.795C146.972 102.272 151.304 85.3442 149.662 67.8497C146.406 33.1156 119.004 4.83576 84.4963 0.589538C61.1987 -2.29789 38.4106 5.51516 21.9636 21.9622C5.48822 38.4375 -2.29652 61.2256 0.590912 84.5232C4.66729 117.559 30.5126 144.112 63.4067 149.122C67.2283 149.717 71.0782 150 74.8715 150C90.2146 150 105.133 145.357 117.815 136.469C118.296 136.129 118.862 136.072 119.344 136.299L137.744 145.471C140.235 146.716 143.122 146.235 145.076 144.282C147.057 142.3 147.51 139.441 146.265 136.95L136.98 118.323H137.036ZM122.259 130.496C119.683 129.193 116.541 129.448 114.135 131.147C99.6695 141.281 81.9769 145.357 64.3975 142.696C34.3342 138.139 10.7535 113.907 7.01686 83.7023C4.38421 62.4146 11.4896 41.5514 26.5495 26.5198C39.5429 13.5264 56.8392 6.44933 75.0414 6.44933C77.9005 6.44933 80.8162 6.61918 83.732 6.98718C115.239 10.8654 140.263 36.7107 143.236 68.4442C144.736 84.4383 140.801 99.8946 131.828 113.171C130.214 115.577 129.988 118.663 131.261 121.211L140.688 139.668L122.288 130.496H122.259Z" fill="white"/>
<path d="M120.561 56.4415C119.344 53.0728 116.852 50.3836 113.654 48.8549C111.842 48.034 109.945 47.6094 107.992 47.6094C102.783 47.6094 97.9992 50.6383 95.7912 55.3658L91.4883 64.6226L87.1572 55.3658C87.0156 55.0827 86.8175 54.7713 86.6759 54.5165C86.5627 54.2901 86.4495 54.0636 86.3079 53.8371C85.9116 53.2144 85.487 52.6482 85.0058 52.1387C84.7793 51.8839 84.5245 51.6574 84.2981 51.4026C84.015 51.1479 83.7036 50.8365 83.3639 50.5817C83.0808 50.3552 82.7694 50.1288 82.4297 49.9023C82.09 49.6475 81.722 49.4494 81.354 49.2795C81.0992 49.138 80.8728 48.9398 80.6463 48.8266C80.5331 48.7983 80.3915 48.7417 80.2783 48.7134C79.6555 48.4303 78.9761 48.2038 78.2684 48.034C77.9853 47.949 77.7023 47.8924 77.4192 47.8075C76.6549 47.666 75.8905 47.581 75.1262 47.581C75.0413 47.581 75.013 47.5527 74.9847 47.5527H74.8997C74.8997 47.5527 74.7865 47.581 74.7582 47.581C73.9939 47.581 73.2296 47.666 72.4652 47.8075C72.1822 47.8924 71.8991 47.949 71.616 48.034C70.9083 48.1755 70.2572 48.402 69.5778 48.7134C69.4646 48.7417 69.3513 48.7983 69.2381 48.8266C69.0117 48.9398 68.7852 49.1097 68.5587 49.2229C68.1907 49.4494 67.8227 49.6192 67.4547 49.9023C67.115 50.1288 66.8319 50.3552 66.5205 50.5817C66.1808 50.8365 65.8978 51.1479 65.5864 51.431C65.3599 51.6574 65.1051 51.8839 64.8787 52.1103C64.3974 52.6765 63.9445 53.2427 63.5765 53.8371C63.4349 54.0636 63.3217 54.2335 63.2085 54.4599C63.0669 54.743 62.8688 55.0261 62.7272 55.3375L58.3961 64.5942L54.0933 55.3375C51.8852 50.61 47.1011 47.581 41.8924 47.581C39.9392 47.581 38.0142 48.034 36.2308 48.8266C33.0037 50.3552 30.5409 53.0445 29.3236 56.4132C28.1064 59.7819 28.2479 63.4336 29.7765 66.6607L46.2236 102.018C46.4217 102.386 46.6199 102.725 46.8181 103.065C46.903 103.207 46.9596 103.32 47.0445 103.461C47.4408 104.141 47.8938 104.707 48.4033 105.301C48.6015 105.5 48.7713 105.641 48.9695 105.811C49.3375 106.179 49.6772 106.519 50.0735 106.802C50.3283 107.028 50.583 107.198 50.8944 107.396C51.2907 107.679 51.7154 107.906 52.14 108.132C52.3665 108.245 52.508 108.387 52.7345 108.5C52.8194 108.529 52.876 108.529 52.9609 108.585C53.6403 108.868 54.3763 109.095 55.1123 109.321C55.3671 109.349 55.6785 109.434 55.9333 109.463C56.6976 109.604 57.4902 109.717 58.2546 109.717C58.3395 109.717 58.3678 109.746 58.3961 109.746H58.4244C58.4244 109.746 58.5093 109.717 58.5659 109.717C59.3303 109.717 60.1229 109.604 60.8589 109.463C61.142 109.434 61.4534 109.349 61.7081 109.321C62.4442 109.095 63.1519 108.868 63.8596 108.585C63.9445 108.557 64.0011 108.557 64.086 108.5C64.3125 108.387 64.454 108.245 64.6805 108.132C65.0768 107.906 65.5298 107.679 65.8978 107.396C66.1808 107.198 66.4922 107.028 66.747 106.802C67.115 106.519 67.483 106.179 67.8227 105.839C68.0209 105.641 68.219 105.471 68.4172 105.245C68.8984 104.679 69.3513 104.084 69.7477 103.461C69.8609 103.263 69.9458 103.122 70.0307 102.952C70.2289 102.669 70.3988 102.329 70.5403 101.989L74.8714 92.7325L79.2026 101.989C79.3441 102.329 79.5423 102.669 79.7121 102.952C79.8254 103.15 79.9103 103.291 79.9952 103.461C80.3915 104.084 80.8445 104.679 81.3257 105.245C81.5239 105.471 81.722 105.641 81.9202 105.839C82.2599 106.179 82.6279 106.519 82.9959 106.802C83.2507 107.028 83.562 107.198 83.8168 107.396C84.2131 107.679 84.6378 107.906 85.0624 108.132C85.2888 108.245 85.4304 108.387 85.6569 108.5C85.7418 108.529 85.7984 108.529 85.8833 108.585C86.591 108.868 87.2987 109.095 88.0347 109.321C88.2895 109.349 88.6009 109.434 88.8557 109.463C89.62 109.604 90.4126 109.717 91.2336 109.717C91.2619 109.717 91.3185 109.746 91.3468 109.746H91.3751C91.3751 109.746 91.46 109.717 91.4883 109.717C92.3093 109.717 93.0736 109.604 93.8662 109.463C94.121 109.434 94.4324 109.349 94.6872 109.321C95.4232 109.095 96.1592 108.868 96.8669 108.557C96.9518 108.557 96.9801 108.557 97.065 108.529C97.2632 108.415 97.4331 108.302 97.6312 108.189C98.0841 107.962 98.5088 107.708 98.9334 107.424C99.2165 107.226 99.4995 107.056 99.7543 106.83C100.122 106.547 100.49 106.207 100.83 105.868C101.056 105.641 101.226 105.5 101.424 105.273C101.906 104.707 102.359 104.112 102.755 103.49C102.868 103.292 102.953 103.15 103.038 102.98C103.236 102.697 103.406 102.357 103.548 102.018L120.051 66.6607C121.58 63.4336 121.721 59.7819 120.504 56.4132L120.561 56.4415ZM46.6765 89.9867L43.0248 82.117L34.7871 64.4527C32.8904 60.4329 34.6455 55.6489 38.6653 53.7522C39.741 53.271 40.845 53.0162 42.034 53.0162C45.1479 53.0162 48.0353 54.8279 49.3092 57.6304L55.5653 71.0202L46.6765 89.9867ZM65.643 100.008C65.3599 100.602 64.9636 101.14 64.5673 101.621C64.5673 101.65 64.539 101.65 64.539 101.706C64.0577 102.216 63.5482 102.669 62.9537 103.037C62.8405 103.122 62.7272 103.178 62.614 103.235C62.1328 103.518 61.5666 103.801 61.0288 103.971C60.8872 103.999 60.774 104.084 60.6324 104.112C59.953 104.311 59.2736 104.396 58.5376 104.396C57.8016 104.396 57.1222 104.282 56.4428 104.112C56.3296 104.084 56.1881 103.999 56.0748 103.971C55.5087 103.773 54.9708 103.518 54.4613 103.235C54.3763 103.207 54.2631 103.122 54.1782 103.037C53.5837 102.669 53.0459 102.216 52.5929 101.706C52.5929 101.706 52.5835 101.678 52.5646 101.621C52.1117 101.14 51.8003 100.574 51.4889 100.008C50.4132 97.8563 50.2433 95.3086 51.3474 92.9873L58.5943 77.3895L65.8694 92.9873C66.9735 95.3086 66.8036 97.8563 65.7279 100.008H65.643ZM70.3421 89.9867L61.51 71.0202L63.1802 67.4251L72.0689 86.4481L70.3704 89.9867H70.3421ZM67.7095 64.4244C66.6338 62.1031 66.7753 59.5837 67.8227 57.4323C68.5021 56.1867 69.4363 55.111 70.5969 54.3184C70.6818 54.2901 70.7951 54.2052 70.8517 54.1768C71.3612 53.8371 71.9274 53.6107 72.5219 53.4125C72.6634 53.3842 72.7766 53.3276 72.8899 53.2993C73.5693 53.1011 74.2487 53.0162 74.9847 53.0162C75.7207 53.0162 76.4284 53.1294 77.0795 53.2993C77.1927 53.3276 77.3059 53.3842 77.4192 53.4125C78.0136 53.639 78.6081 53.8655 79.1177 54.1768C79.2026 54.2052 79.2592 54.2901 79.3724 54.3184C80.5048 55.0827 81.4672 56.1584 82.1183 57.4323C83.194 59.5837 83.3356 62.1031 82.2599 64.4244L74.9847 80.0222L67.7095 64.4244ZM79.6272 89.9867L77.957 86.4481L86.8458 67.4251L88.516 71.0202L79.6272 89.9867ZM98.5937 100.008C98.3106 100.602 97.9709 101.14 97.518 101.621C97.518 101.65 97.4897 101.65 97.4897 101.706C97.0084 102.216 96.4989 102.669 95.9044 103.037C95.7912 103.122 95.6779 103.178 95.6213 103.235C95.1118 103.518 94.5456 103.801 94.0078 103.971C93.8662 103.999 93.753 104.084 93.6114 104.112C92.932 104.311 92.2527 104.396 91.5449 104.396C90.8089 104.396 90.1012 104.282 89.4501 104.112C89.3086 104.084 89.1954 103.999 89.0538 103.971C88.4877 103.773 87.9498 103.518 87.4403 103.235C87.3553 103.207 87.2421 103.122 87.1572 103.037C86.5627 102.669 86.0532 102.216 85.5719 101.706C85.5719 101.678 85.5436 101.678 85.5436 101.621C85.0907 101.14 84.7793 100.574 84.4679 100.008C83.3922 97.8563 83.2224 95.3086 84.3264 92.9873L91.6016 77.3895L98.8484 92.9873C99.9525 95.3086 99.7826 97.8563 98.7069 100.008H98.5937ZM115.239 64.4244L107.001 82.0887L103.349 89.9584L94.4607 70.9919L100.66 57.6021C101.991 54.7996 104.85 52.9879 107.992 52.9879C109.181 52.9879 110.285 53.2427 111.361 53.7239C115.38 55.6206 117.136 60.3763 115.239 64.4244Z" fill="white" fill-opacity="0.5"/>
<path d="M120.561 56.4415C119.344 53.0728 116.853 50.3836 113.654 48.8832C111.842 48.034 109.945 47.6377 107.992 47.6377C102.783 47.6377 97.971 50.6666 95.7913 55.3658L91.63 64.2829L90.5259 66.6608L89.4502 68.982L88.4878 71.0485L89.4219 73.0867L89.9598 74.2473L90.4693 75.3514L91.4318 77.4179L92.3943 75.3514L100.632 57.6871C101.934 54.8846 104.822 53.0445 107.935 53.0445C109.096 53.0445 110.228 53.2993 111.304 53.7805C115.324 55.6489 117.051 60.433 115.182 64.4527L106.945 82.117L98.707 99.7813C98.707 99.7813 98.5655 99.9794 98.5088 100.064C98.2541 100.546 97.9427 101.027 97.603 101.451C97.5464 101.536 97.4897 101.621 97.4048 101.706C96.9802 102.187 96.4707 102.612 95.9045 102.98C95.763 103.093 95.5931 103.178 95.4232 103.263C95.2251 103.376 95.0269 103.518 94.8288 103.631C94.574 103.744 94.3192 103.801 94.0645 103.886C93.8663 103.943 93.6681 104.028 93.47 104.084C92.8472 104.254 92.2244 104.339 91.6017 104.367C91.545 104.367 91.4884 104.367 91.4318 104.367C90.6958 104.367 89.9881 104.226 89.3087 104.028C89.2238 104.028 89.1388 103.971 89.0539 103.943C88.7142 103.829 88.3745 103.744 88.0631 103.603C87.78 103.461 87.5253 103.292 87.2705 103.122C87.2139 103.093 87.1573 103.065 87.1007 103.008C86.5062 102.612 85.94 102.159 85.4588 101.621C85.4305 101.593 85.4022 101.536 85.3739 101.508C84.9775 101.055 84.6378 100.517 84.3831 99.9795C84.3265 99.8662 84.2415 99.8096 84.1849 99.6964L81.8636 94.7424L80.9295 92.7043L79.6273 89.9017L77.9571 86.3349L86.308 68.4725L87.1573 66.6324C87.3837 66.1512 87.5253 65.6134 87.6951 65.1038C87.865 64.5943 88.0065 64.0847 88.1197 63.5469C88.601 61.169 88.4594 58.7062 87.5819 56.3849C87.2988 55.564 86.9025 54.7996 86.4779 54.0919C86.4496 54.0353 86.4213 53.9787 86.3646 53.9221C85.94 53.2427 85.4588 52.5916 84.9209 51.9971C84.7511 51.8273 84.5812 51.6574 84.3831 51.4876C84.0151 51.1196 83.6471 50.7799 83.2507 50.4685C83.0243 50.2703 82.7695 50.1005 82.543 49.9589C81.9486 49.5626 81.3258 49.1663 80.6464 48.8549C80.5332 48.77 80.4199 48.77 80.2784 48.7134C79.6556 48.4586 78.9762 48.2321 78.3251 48.034C78.042 47.9491 77.7307 47.8924 77.4476 47.8358C76.7116 47.6943 75.9755 47.5811 75.1829 47.5811H74.8149C74.0506 47.5811 73.258 47.6943 72.522 47.8358C72.2389 47.8641 71.9275 47.9491 71.6727 48.034C70.965 48.2321 70.2573 48.4303 69.6345 48.7417C69.5213 48.77 69.4081 48.77 69.2948 48.8549C69.0684 48.9682 68.8419 49.1097 68.6154 49.2512C68.2191 49.4494 67.8511 49.6476 67.5114 49.874C67.1717 50.1005 66.8886 50.3269 66.5772 50.5817C66.2375 50.8365 65.9545 51.0913 65.6431 51.4027C65.3883 51.6291 65.1618 51.8556 64.9354 52.1104C64.4541 52.6199 64.0012 53.2144 63.6332 53.8372C63.4916 54.0353 63.3784 54.2335 63.2652 54.4599C63.1236 54.743 62.9255 55.0261 62.7839 55.3092L58.4528 64.5943L54.1217 55.3092C51.9419 50.61 47.1578 47.5811 41.9491 47.5811C39.9959 47.5811 38.0709 47.9774 36.2875 48.8266C33.0321 50.2986 30.5976 53.0162 29.3803 56.3849C28.1348 59.7819 28.3046 63.4053 29.7766 66.6608L46.2803 102.018C46.4784 102.357 46.6483 102.697 46.8464 103.008C46.9597 103.15 47.0446 103.292 47.1012 103.461C47.4975 104.084 47.9505 104.707 48.46 105.273L49.0262 105.839C49.3942 106.179 49.7339 106.519 50.1019 106.802C50.385 107.028 50.6681 107.255 50.9511 107.424C51.3474 107.679 51.7721 107.906 52.1684 108.132C52.3949 108.274 52.5647 108.415 52.7912 108.5C52.8761 108.529 52.9327 108.585 53.0176 108.613C53.7253 108.897 54.433 109.123 55.1124 109.321C55.3955 109.406 55.6786 109.463 55.9617 109.519C56.726 109.661 57.5186 109.774 58.2829 109.774H58.566C59.387 109.774 60.1513 109.661 60.8873 109.519C61.1704 109.491 61.4535 109.406 61.7365 109.321C62.4726 109.123 63.1803 108.925 63.888 108.585C63.9729 108.585 64.0012 108.557 64.0861 108.5H64.1144C64.3409 108.387 64.5107 108.274 64.7089 108.161C65.5581 107.679 65.7846 107.538 66.0111 107.396C66.2375 107.255 66.4923 107.056 66.6905 106.887C67.2566 106.434 67.7945 106.009 68.2757 105.471C68.2757 105.443 68.304 105.443 68.304 105.443C68.5871 105.103 68.8985 104.764 69.1533 104.396C69.3797 104.056 69.6062 103.716 69.8327 103.348C69.861 103.32 69.9176 103.235 69.9459 103.15C70.3422 102.442 70.7102 101.706 71.0216 100.885C71.8992 98.4791 72.069 95.9597 71.5312 93.5252C71.4462 93.2421 71.3896 92.9307 71.2764 92.6476C71.0782 91.9682 70.9084 91.3172 70.5687 90.6378L70.2856 89.9584H70.2573L68.1059 85.2875H68.1342L61.4535 70.907L63.1236 67.3118L64.0861 65.2453L64.8504 63.5469L67.6529 57.5455C67.6529 57.5455 67.7379 57.4323 67.7662 57.404C67.8511 57.2624 67.9077 57.1775 67.9643 57.0643C68.1908 56.668 68.4456 56.2434 68.7287 55.932C68.757 55.9037 68.757 55.847 68.8136 55.847C69.0967 55.479 69.4364 55.111 69.7761 54.8562C70.0308 54.6298 70.2856 54.4033 70.5404 54.2618C70.6253 54.1769 70.7385 54.1486 70.7952 54.1202H70.8235C70.8235 54.1202 71.0216 53.9787 71.1065 53.9221C71.4462 53.7239 71.8142 53.5824 72.1823 53.4408C72.2672 53.4125 72.3238 53.3559 72.437 53.3276H72.4653C72.6635 53.2427 72.8616 53.2144 73.0598 53.1861C73.3146 53.0728 73.5694 53.0445 73.8241 52.9879C74.1921 52.903 74.5601 52.8747 74.9281 52.8747C76.0605 52.8747 77.2211 53.1295 78.2968 53.639C78.5516 53.7522 78.7781 53.9221 79.0328 54.0919C79.0894 54.1202 79.1744 54.1485 79.231 54.2335C79.8255 54.6015 80.3633 55.0544 80.8162 55.564C81.071 55.8187 81.2975 56.0735 81.4956 56.3849C81.4956 56.3849 81.4673 56.4132 81.4956 56.4132C82.0052 57.1775 82.3732 58.0268 82.5997 58.9326C82.628 58.9609 82.628 59.0176 82.628 59.0742C82.7412 59.5271 82.8261 60.0083 82.8544 60.4896V61.1124C82.8544 61.4521 82.8261 61.7918 82.7695 62.0748C82.7412 62.273 82.7412 62.4711 82.6846 62.6693C82.5713 63.1222 82.4298 63.5185 82.2316 63.9715C82.2033 64.0847 82.1467 64.1979 82.1184 64.3112L74.8432 79.9656L73.8807 82.0038L72.805 84.2967L71.8426 86.3349L72.805 88.3731L73.1447 89.1091L74.8432 92.7326L79.1461 101.989C79.3442 102.357 79.5424 102.669 79.7405 102.98C79.8255 103.122 79.8821 103.263 79.967 103.433C80.3633 104.056 80.8162 104.679 81.3258 105.245C81.5239 105.443 81.6938 105.613 81.892 105.811C82.2316 106.151 82.5997 106.49 82.996 106.802C83.2507 107 83.5055 107.198 83.8169 107.396C84.2132 107.651 84.6378 107.906 85.0625 108.132C85.2889 108.245 85.4305 108.387 85.6569 108.472C85.7419 108.5 85.7985 108.5 85.8551 108.557C86.5628 108.897 87.2988 109.123 88.0348 109.293C88.2896 109.378 88.601 109.434 88.8558 109.491C89.6201 109.633 90.4127 109.746 91.177 109.746H91.4601C92.281 109.746 93.0454 109.633 93.838 109.491C94.0928 109.463 94.3475 109.378 94.6589 109.293C95.3949 109.095 96.131 108.897 96.8387 108.557C96.867 108.529 96.9519 108.529 97.0368 108.472C97.235 108.387 97.4048 108.245 97.603 108.132C98.0559 107.906 98.4805 107.651 98.9052 107.396C99.1599 107.198 99.4713 107 99.7261 106.773C100.094 106.49 100.462 106.151 100.802 105.811C101 105.613 101.198 105.443 101.396 105.245C101.878 104.679 102.33 104.112 102.727 103.433C102.84 103.292 102.925 103.093 103.01 102.952C103.208 102.612 103.378 102.329 103.519 101.989L120.023 66.6324C121.552 63.377 121.693 59.7536 120.476 56.3566L120.561 56.4415ZM65.7563 92.959C66.6905 94.884 66.7471 97.0637 66.0111 99.1019C65.8695 99.4982 65.6714 99.8662 65.4449 100.291C65.3034 100.546 65.1052 100.857 64.9354 101.112C64.7089 101.395 64.4824 101.678 64.256 101.933C63.888 102.329 63.4916 102.669 63.0387 102.98C62.8123 103.122 62.5858 103.235 62.3593 103.376C61.9913 103.575 61.6233 103.744 61.2553 103.858C61.0005 103.971 60.6891 104.084 60.4344 104.141C59.9531 104.254 59.4436 104.339 58.9057 104.367C58.7642 104.367 58.6226 104.396 58.4528 104.396C58.2263 104.396 57.9999 104.311 57.7734 104.282C56.8109 104.197 55.8768 103.943 55.0275 103.546C54.7727 103.433 54.518 103.348 54.2632 103.207C54.2632 103.207 54.2349 103.207 54.2066 103.178C53.8669 102.952 53.5838 102.669 53.2724 102.414C52.9893 102.187 52.7062 101.989 52.4515 101.735C52.1118 101.367 51.8853 100.942 51.6305 100.517C51.5456 100.404 51.4607 100.291 51.4041 100.178C51.4041 100.178 51.4041 100.178 51.4041 100.149C51.3474 100.036 51.2342 99.9228 51.1776 99.8096L42.9399 82.1453L34.7023 64.481C32.8056 60.4613 34.5607 55.6772 38.5805 53.7805C39.6562 53.2993 40.7602 53.0445 41.9491 53.0445C45.0913 53.0445 47.9505 54.8563 49.281 57.6588L55.5371 71.0768L58.5094 77.4462L65.7563 93.0156V92.959Z" fill="white"/>
</g>
<defs>
<clipPath id="clip0_907_38913">
<rect width="150" height="180" fill="white"/>
</clipPath>
</defs>
</svg>
