<svg width="24" height="24" viewBox="0 0 24 24" fill="none" xmlns="http://www.w3.org/2000/svg">
<circle cx="12" cy="9" r="1.5" stroke="#33363F" stroke-linecap="round"/>
<path d="M15.701 8.25C15.8999 7.90547 16.2275 7.65408 16.6118 7.55111C16.996 7.44815 17.4055 7.50205 17.75 7.70096C18.0945 7.89987 18.3459 8.2275 18.4489 8.61177C18.5519 8.99604 18.498 9.40547 18.299 9.75C18.1001 10.0945 17.7725 10.3459 17.3882 10.4489C17.004 10.5519 16.5945 10.498 16.25 10.299C15.9055 10.1001 15.6541 9.7725 15.5511 9.38823C15.4481 9.00396 15.502 8.59453 15.701 8.25L15.701 8.25Z" stroke="#33363F"/>
<path d="M5.70096 8.25C5.89987 7.90547 6.2275 7.65408 6.61177 7.55111C6.99604 7.44815 7.40547 7.50205 7.75 7.70096C8.09453 7.89987 8.34592 8.2275 8.44889 8.61177C8.55185 8.99604 8.49795 9.40547 8.29904 9.75C8.10013 10.0945 7.7725 10.3459 7.38823 10.4489C7.00396 10.5519 6.59453 10.498 6.25 10.299C5.90547 10.1001 5.65408 9.7725 5.55111 9.38823C5.44815 9.00396 5.50205 8.59453 5.70096 8.25L5.70096 8.25Z" stroke="#33363F"/>
<path d="M20.364 15.5122L20.8502 15.3957L20.364 15.5122ZM14.1001 13.1854L13.8094 12.7786L13.2771 13.1589L13.7839 13.5727L14.1001 13.1854ZM15.3805 15.5097L14.8912 15.6125L15.3805 15.5097ZM19.5001 16H14.5001V17H19.5001V16ZM19.8777 15.6288C19.9013 15.7271 19.8758 15.8068 19.817 15.8717C19.7528 15.9424 19.6413 16 19.5001 16V17C20.2997 17 21.071 16.3171 20.8502 15.3957L19.8777 15.6288ZM16.5001 13C17.7261 13 18.4896 13.4087 18.9823 13.9118C19.4885 14.4286 19.7476 15.0859 19.8777 15.6288L20.8502 15.3957C20.6964 14.7541 20.3756 13.9052 19.6967 13.2121C19.0044 12.5051 17.9779 12 16.5001 12V13ZM14.3908 13.5922C14.8687 13.2508 15.5401 13 16.5001 13V12C15.3545 12 14.4746 12.3034 13.8094 12.7786L14.3908 13.5922ZM13.7839 13.5727C14.4369 14.1059 14.7485 14.9336 14.8912 15.6125L15.8698 15.4068C15.7086 14.6398 15.33 13.5441 14.4163 12.7981L13.7839 13.5727ZM14.8912 15.6125C14.9128 15.7155 14.8844 15.801 14.8217 15.8694C14.7544 15.9427 14.6411 16 14.5001 16V17C15.304 17 16.0616 16.3194 15.8698 15.4068L14.8912 15.6125Z" fill="#33363F"/>
<path d="M9.90019 13.1854L10.2164 13.5727L10.7232 13.1589L10.1908 12.7785L9.90019 13.1854ZM3.63632 15.5122L4.12255 15.6288L3.63632 15.5122ZM8.6198 15.5097L8.13049 15.4068L8.6198 15.5097ZM7.50022 13C8.46016 13 9.13165 13.2508 9.60954 13.5922L10.1908 12.7785C9.52569 12.3033 8.64581 12 7.50022 12V13ZM4.12255 15.6288C4.25267 15.0859 4.51183 14.4286 5.01801 13.9118C5.51067 13.4087 6.27419 13 7.50022 13V12C6.02241 12 4.99593 12.5051 4.30357 13.2121C3.62474 13.9052 3.30387 14.7541 3.15009 15.3957L4.12255 15.6288ZM4.50023 16C4.35898 16 4.24747 15.9424 4.18331 15.8717C4.1245 15.8068 4.09898 15.7271 4.12255 15.6288L3.15009 15.3957C2.92925 16.3171 3.7006 17 4.50023 17V16ZM9.50018 16H4.50023V17H9.50018V16ZM9.50018 16C9.35917 16 9.24592 15.9427 9.17862 15.8694C9.11586 15.801 9.08746 15.7155 9.10911 15.6125L8.13049 15.4068C7.93867 16.3194 8.69631 17 9.50018 17V16ZM9.10911 15.6125C9.25181 14.9336 9.56335 14.1059 10.2164 13.5727L9.58397 12.7981C8.67025 13.5441 8.29171 14.6398 8.13049 15.4068L9.10911 15.6125Z" fill="#33363F"/>
<path d="M12 12.5C14.3642 12.5 15.1314 14.3251 15.3804 15.5097C15.494 16.0501 15.0523 16.5 14.5 16.5H9.5C8.94772 16.5 8.50601 16.0501 8.61961 15.5097C8.86859 14.3251 9.63581 12.5 12 12.5Z" stroke="#33363F" stroke-linecap="round"/>
<path d="M18.5 21.5H20C20.8284 21.5 21.5 20.8284 21.5 20V18.5" stroke="#33363F" stroke-linecap="round"/>
<path d="M18.5 2.5H20C20.8284 2.5 21.5 3.17157 21.5 4V5.5" stroke="#33363F" stroke-linecap="round"/>
<path d="M5.5 21.5H4C3.17157 21.5 2.5 20.8284 2.5 20V18.5" stroke="#33363F" stroke-linecap="round"/>
<path d="M5.5 2.5H4C3.17157 2.5 2.5 3.17157 2.5 4V5.5" stroke="#33363F" stroke-linecap="round"/>
</svg>
