<svg width="25" height="24" viewBox="0 0 25 24" fill="none" xmlns="http://www.w3.org/2000/svg">
<path d="M3.82698 5.8016L4.27248 6.0286L3.82698 5.8016ZM4.2682 20.1954L4.62175 20.5489H4.62175L4.2682 20.1954ZM16.7 17.3636V16.8636V17.3636ZM19.862 17.0366L20.089 17.4821L19.862 17.0366ZM21.173 15.7255L20.7275 15.4985V15.4986L21.173 15.7255ZM21.173 5.8016L20.7275 6.0286V6.0286L21.173 5.8016ZM19.862 4.49055L20.089 4.04505V4.04505L19.862 4.49055ZM5.13803 4.49055L5.36502 4.93606L5.13803 4.49055ZM6.80711 17.6565L6.45355 17.3029L6.80711 17.6565ZM7.51421 17.3636V16.8636V17.3636ZM4 8.96357C4 8.11524 4.00039 7.50907 4.03921 7.03389C4.07756 6.56456 4.15089 6.26723 4.27248 6.0286L3.38148 5.57461C3.17609 5.97771 3.08593 6.42129 3.04253 6.95246C2.99961 7.4778 3 8.13174 3 8.96357H4ZM4 11.3636V8.96357H3V11.3636H4ZM3 11.3636V17.3636H4V11.3636H3ZM3 17.3636V19.8772H4V17.3636H3ZM3 19.8772C3 20.7235 4.02328 21.1474 4.62175 20.5489L3.91464 19.8418C3.91754 19.8389 3.92812 19.8316 3.94323 19.829C3.9556 19.8268 3.96421 19.8289 3.96913 19.831C3.97406 19.833 3.98164 19.8376 3.98888 19.8479C3.99771 19.8604 4 19.8731 4 19.8772H3ZM4.62175 20.5489L7.16066 18.01L6.45355 17.3029L3.91464 19.8418L4.62175 20.5489ZM16.7 16.8636L7.51421 16.8636V17.8636L16.7 17.8636V16.8636ZM19.635 16.5911C19.3963 16.7127 19.099 16.786 18.6297 16.8244C18.1545 16.8632 17.5483 16.8636 16.7 16.8636V17.8636C17.5318 17.8636 18.1858 17.864 18.7111 17.821C19.2423 17.7776 19.6859 17.6875 20.089 17.4821L19.635 16.5911ZM20.7275 15.4986C20.4878 15.969 20.1054 16.3514 19.635 16.5911L20.089 17.4821C20.7475 17.1465 21.283 16.6111 21.6185 15.9525L20.7275 15.4986ZM21 12.5636C21 13.4119 20.9996 14.0181 20.9608 14.4933C20.9224 14.9626 20.8491 15.2599 20.7275 15.4985L21.6185 15.9525C21.8239 15.5494 21.9141 15.1059 21.9575 14.5747C22.0004 14.0493 22 13.3954 22 12.5636H21ZM21 8.96357V12.5636H22V8.96357H21ZM20.7275 6.0286C20.8491 6.26723 20.9224 6.56456 20.9608 7.0339C20.9996 7.50907 21 8.11525 21 8.96357H22C22 8.13175 22.0004 7.4778 21.9575 6.95246C21.9141 6.42129 21.8239 5.97771 21.6185 5.57461L20.7275 6.0286ZM19.635 4.93606C20.1054 5.17574 20.4878 5.55819 20.7275 6.0286L21.6185 5.57461C21.283 4.91604 20.7475 4.38061 20.089 4.04505L19.635 4.93606ZM16.7 4.66357C17.5483 4.66357 18.1545 4.66396 18.6297 4.70279C19.099 4.74113 19.3963 4.81447 19.635 4.93606L20.089 4.04505C19.6859 3.83966 19.2423 3.74951 18.7111 3.70611C18.1858 3.66319 17.5318 3.66357 16.7 3.66357V4.66357ZM8.3 4.66357H16.7V3.66357H8.3V4.66357ZM5.36502 4.93606C5.60366 4.81447 5.90099 4.74113 6.37032 4.70279C6.84549 4.66396 7.45167 4.66357 8.3 4.66357V3.66357C7.46817 3.66357 6.81423 3.66319 6.28889 3.70611C5.75771 3.74951 5.31413 3.83966 4.91103 4.04505L5.36502 4.93606ZM4.27248 6.0286C4.51217 5.55819 4.89462 5.17574 5.36502 4.93606L4.91103 4.04505C4.25247 4.38061 3.71703 4.91604 3.38148 5.57461L4.27248 6.0286ZM7.16066 18.01C7.25443 17.9163 7.3816 17.8636 7.51421 17.8636V16.8636C7.11639 16.8636 6.73486 17.0216 6.45355 17.3029L7.16066 18.01Z" fill="#33363F"/>
<circle cx="9.5" cy="11" r="0.5" fill="#33363F"/>
<circle cx="12.5" cy="11" r="0.5" fill="#33363F"/>
<circle cx="15.5" cy="11" r="0.5" fill="#33363F"/>
</svg>
