<svg width="28" height="28" viewBox="0 0 28 28" fill="none" xmlns="http://www.w3.org/2000/svg">
<rect y="4" width="20.3592" height="20" rx="5" fill="white"/>
<path d="M21.4258 11.754C21.4258 11.1746 21.4258 10.8849 21.501 10.6184C21.5676 10.3825 21.677 10.1607 21.8238 9.96432C21.9896 9.74258 22.2195 9.56637 22.6794 9.21396L22.8537 9.08037C24.5072 7.81332 25.3339 7.17979 26.0272 7.18918C26.6304 7.19735 27.1976 7.47732 27.571 7.95112C28.0001 8.49568 28.0001 9.53724 28.0001 11.6204V15.9258C28.0001 18.0089 28.0001 19.0505 27.571 19.5951C27.1976 20.0688 26.6304 20.3488 26.0272 20.357C25.3339 20.3664 24.5072 19.7329 22.8537 18.4658L22.6794 18.3322C22.2195 17.9798 21.9896 17.8036 21.8238 17.5818C21.677 17.3854 21.5676 17.1637 21.501 16.9277C21.4258 16.6613 21.4258 16.3716 21.4258 15.7922V11.754Z" fill="white"/>
</svg>
