<svg width="28" height="19" viewBox="0 0 28 19" fill="none" xmlns="http://www.w3.org/2000/svg">
<g clip-path="url(#clip0_1482_10630)">
<path fill-rule="evenodd" clip-rule="evenodd" d="M25.9019 3.73944L20.9241 7.30555C20.4032 7.68093 19.6652 7.30555 19.6652 6.65585V4.40358C19.6652 2.44005 18.059 0.851903 16.1055 0.851903H4.39905C2.44556 0.837466 0.839355 2.44005 0.839355 4.38914V14.5966C0.839355 16.5601 2.44556 18.1483 4.39905 18.1483H16.0766C18.0445 18.1483 19.6363 16.5457 19.6363 14.5966V11.6802C19.6363 11.0305 20.3742 10.6551 20.8952 11.0305L25.8729 14.5966C26.3939 14.972 27.1319 14.5966 27.1319 13.9469V4.38914C27.1319 3.73944 26.3939 3.36406 25.8729 3.73944H25.9019Z" stroke="white" stroke-width="1.16" stroke-linecap="round" stroke-linejoin="round"/>
</g>
<defs>
<clipPath id="clip0_1482_10630">
<rect width="28" height="19" fill="white"/>
</clipPath>
</defs>
</svg>
