<svg width="24" height="24" viewBox="0 0 24 24" fill="none" xmlns="http://www.w3.org/2000/svg">
<g clip-path="url(#clip0_1501_10952)">
<path d="M11.9621 4.44861H11.906C10.3088 4.44861 9.01404 5.74338 9.01404 7.34056V12.035C9.01404 13.6321 10.3088 14.9269 11.906 14.9269H11.9621C13.5592 14.9269 14.854 13.6321 14.854 12.035V7.34056C14.854 5.74338 13.5592 4.44861 11.9621 4.44861Z" stroke="white" stroke-width="1.11" stroke-linecap="round" stroke-linejoin="round"/>
<path d="M17.041 10.1124V11.9308C17.041 12.5076 16.9529 13.0604 16.7846 13.5731C16.5683 14.23 16.2319 14.8388 15.7993 15.3515C14.862 16.465 13.4761 17.17 11.938 17.17C9.11816 17.17 6.82703 14.8228 6.82703 11.9308V10.0162" stroke="white" stroke-width="1.11" stroke-linecap="round" stroke-linejoin="round"/>
<path d="M8.90985 19.6694H14.846" stroke="white" stroke-width="1.11" stroke-linecap="round" stroke-linejoin="round"/>
<path d="M11.922 17.3221V19.3649" stroke="white" stroke-width="1.11" stroke-linecap="round" stroke-linejoin="round"/>
</g>
<defs>
<clipPath id="clip0_1501_10952">
<rect width="11.1032" height="16.11" fill="white" transform="translate(6.37842 4)"/>
</clipPath>
</defs>
</svg>
