<svg width="21" height="22" viewBox="0 0 21 22" fill="none" xmlns="http://www.w3.org/2000/svg">
<path d="M12.6361 2.36144L13.1337 2.31169L12.6361 2.36144ZM12.4838 1.54161L12.0394 1.7708V1.77081L12.4838 1.54161ZM12.9311 3.81793L13.3286 3.51467V3.51467L12.9311 3.81793ZM13.8595 4.20248L13.7928 3.70694L13.7928 3.70694L13.8595 4.20248ZM15.0979 3.38113L15.4145 3.76811V3.76811L15.0979 3.38113ZM15.7853 2.90918L15.9375 3.38547L15.7853 2.90918ZM16.4872 2.94419L16.686 2.48541V2.48541L16.4872 2.94419ZM17.1243 3.4822L16.7707 3.83575V3.83575L17.1243 3.4822ZM18.0178 4.37567L18.3713 4.02211V4.02211L18.0178 4.37567ZM18.5558 5.01275L19.0146 4.81396L19.0146 4.81396L18.5558 5.01275ZM18.5908 5.71464L19.0671 5.8668L19.0671 5.86679L18.5908 5.71464ZM18.1188 6.4021L17.7318 6.08548V6.08548L18.1188 6.4021ZM17.2975 7.64056L16.8019 7.5739V7.5739L17.2975 7.64056ZM17.682 8.56893L17.3787 8.96645L17.682 8.56893ZM19.1385 8.86385L19.1883 8.36633L19.1385 8.86385ZM19.9584 9.01624L20.1876 8.57187L20.1876 8.57187L19.9584 9.01624ZM20.4299 9.53729L20.8949 9.35345V9.35344L20.4299 9.53729ZM20.43 12.4626L19.965 12.2788L19.965 12.2788L20.43 12.4626ZM19.9583 12.9838L20.1875 13.4282H20.1875L19.9583 12.9838ZM19.1386 13.1361L19.0889 12.6386L19.0726 12.6402L19.0564 12.6429L19.1386 13.1361ZM19.1386 13.1361L19.1884 13.6337L19.2047 13.632L19.2208 13.6293L19.1386 13.1361ZM17.6825 13.4309L17.3794 13.0333L17.6825 13.4309ZM17.2979 14.3596L16.8023 14.4264V14.4264L17.2979 14.3596ZM18.119 15.5976L17.732 15.9142L18.119 15.5976ZM18.5908 16.2848L18.1145 16.437L18.1145 16.437L18.5908 16.2848ZM18.5558 16.9869L18.097 16.7881L18.097 16.7881L18.5558 16.9869ZM18.0179 17.6238L18.3715 17.9773L18.0179 17.6238ZM17.1243 18.5174L16.7708 18.1638V18.1638L17.1243 18.5174ZM16.4873 19.0554L16.6861 19.5141L16.6861 19.5141L16.4873 19.0554ZM15.7854 19.0904L15.6332 19.5667H15.6332L15.7854 19.0904ZM15.0979 18.6184L15.4146 18.2314L15.4103 18.228L15.0979 18.6184ZM15.0979 18.6184L14.7813 19.0054L14.7856 19.0088L15.0979 18.6184ZM13.8595 17.7971L13.9262 17.3015H13.9262L13.8595 17.7971ZM12.9311 18.1816L13.3286 18.4849L13.3286 18.4849L12.9311 18.1816ZM12.6362 19.6383L12.1386 19.5886L12.6362 19.6383ZM12.4837 20.4585L12.0394 20.2292L12.0394 20.2292L12.4837 20.4585ZM11.9628 20.9299L11.7789 20.465H11.7789L11.9628 20.9299ZM9.03729 20.9299L9.22114 20.465H9.22114L9.03729 20.9299ZM8.51624 20.4584L8.96062 20.2292L8.51624 20.4584ZM8.36385 19.6385L7.86634 19.6883L8.36385 19.6385ZM8.06892 18.182L7.67139 18.4853L7.67139 18.4853L8.06892 18.182ZM7.14057 17.7975L7.07392 17.3019H7.07392L7.14057 17.7975ZM5.90208 18.6189L5.58546 18.2319L5.57754 18.2384L5.56989 18.2452L5.90208 18.6189ZM5.90206 18.6189L6.21868 19.0058L6.2266 18.9994L6.23424 18.9926L5.90206 18.6189ZM5.21458 19.0908L5.36673 19.5671H5.36673L5.21458 19.0908ZM4.51272 19.0558L4.31394 19.5146H4.31394L4.51272 19.0558ZM3.87561 18.5178L4.22916 18.1642H4.22916L3.87561 18.5178ZM2.98217 17.6243L2.62861 17.9779H2.62861L2.98217 17.6243ZM2.44414 16.9873L2.90292 16.7885L2.44414 16.9873ZM2.40913 16.2854L2.88542 16.4375L2.40913 16.2854ZM2.8811 15.5979L3.26808 15.9145L2.8811 15.5979ZM3.70247 14.3594L4.19801 14.4261L3.70247 14.3594ZM3.31792 13.4311L3.62119 13.0335H3.62119L3.31792 13.4311ZM1.86143 13.1361L1.81168 13.6337H1.81168L1.86143 13.1361ZM1.04161 12.9838L1.27081 12.5394H1.27081L1.04161 12.9838ZM0.570047 12.4627L0.105071 12.6465H0.105071L0.570047 12.4627ZM0.570084 9.53721L0.105126 9.35333L0.105126 9.35333L0.570084 9.53721ZM1.04152 9.01628L0.812285 8.57193L0.812284 8.57193L1.04152 9.01628ZM1.86155 8.86384V8.36384H1.83661L1.8118 8.36633L1.86155 8.86384ZM1.86156 8.86384V9.36384H1.8865L1.91131 9.36136L1.86156 8.86384ZM3.31842 8.56881L3.0151 8.17132L3.01509 8.17132L3.31842 8.56881ZM3.70287 7.64066L4.19841 7.57408H4.19841L3.70287 7.64066ZM2.88128 6.40182L3.26826 6.0852L2.88128 6.40182ZM2.40914 5.71405L2.88545 5.56197H2.88544L2.40914 5.71405ZM2.44413 5.01243L1.98532 4.81371L1.98532 4.81371L2.44413 5.01243ZM2.98233 4.37509L3.33589 4.72864L3.33589 4.72864L2.98233 4.37509ZM3.87565 3.48177L3.5221 3.12822H3.5221L3.87565 3.48177ZM4.51277 2.94373L4.31398 2.48494H4.31398L4.51277 2.94373ZM5.21463 2.90872L5.36677 2.43243L5.21463 2.90872ZM5.9022 3.38076L6.21882 2.99378V2.99378L5.9022 3.38076ZM7.14044 4.20207L7.20718 3.70654L7.14044 4.20207ZM8.06907 3.81742L7.67149 3.51422L8.06907 3.81742ZM8.36387 2.36131L8.86139 2.41106V2.41106L8.36387 2.36131ZM8.51619 1.5417L8.07179 1.31255L8.07179 1.31256L8.51619 1.5417ZM9.03741 1.07001L9.2212 1.535L9.2212 1.535L9.03741 1.07001ZM11.9627 1.07005L12.1465 0.605072L12.1465 0.605072L11.9627 1.07005ZM13.1337 2.31169C13.1126 2.10146 13.0947 1.91945 13.0695 1.7696C13.0435 1.61482 13.0051 1.46166 12.9281 1.31242L12.0394 1.77081C12.0497 1.79088 12.0658 1.8308 12.0833 1.93519C12.1017 2.04449 12.1163 2.18775 12.1386 2.41119L13.1337 2.31169ZM13.3286 3.51467C13.3173 3.49983 13.2806 3.43872 13.2421 3.22451C13.2044 3.01507 13.1755 2.73051 13.1337 2.31169L12.1386 2.41119C12.1788 2.81323 12.2116 3.14432 12.2579 3.40161C12.3033 3.65413 12.3731 3.91083 12.5335 4.12119L13.3286 3.51467ZM13.7928 3.70694C13.6148 3.73089 13.4375 3.65749 13.3286 3.51467L12.5335 4.12118C12.8604 4.54967 13.392 4.76987 13.9261 4.69801L13.7928 3.70694ZM14.7813 2.99415C14.4555 3.26069 14.2339 3.44152 14.0592 3.56296C13.8804 3.68717 13.8113 3.70445 13.7928 3.70694L13.9261 4.69801C14.1883 4.66274 14.4192 4.53055 14.6298 4.38412C14.8445 4.23493 15.1018 4.02396 15.4145 3.76811L14.7813 2.99415ZM15.6332 2.4329C15.4732 2.484 15.3377 2.56512 15.2099 2.65619C15.0861 2.74436 14.9448 2.86037 14.7813 2.99415L15.4145 3.76811C15.5883 3.62591 15.6999 3.53493 15.7902 3.47062C15.8764 3.4092 15.916 3.39234 15.9375 3.38547L15.6332 2.4329ZM16.686 2.48541C16.353 2.3411 15.9789 2.32244 15.6332 2.4329L15.9375 3.38547C16.0527 3.34865 16.1774 3.35487 16.2884 3.40297L16.686 2.48541ZM17.4778 3.12865C17.3285 2.97925 17.1993 2.84975 17.0849 2.74971C16.9668 2.64638 16.8401 2.55217 16.686 2.48541L16.2884 3.40297C16.3092 3.41195 16.3469 3.43267 16.4265 3.50236C16.51 3.57534 16.612 3.67697 16.7707 3.83575L17.4778 3.12865ZM18.3713 4.02211L17.4778 3.12865L16.7707 3.83575L17.6642 4.72922L18.3713 4.02211ZM19.0146 4.81396C18.9478 4.65988 18.8536 4.53314 18.7503 4.41502C18.6502 4.30065 18.5207 4.17151 18.3713 4.02211L17.6642 4.72922C17.823 4.88801 17.9246 4.99001 17.9976 5.07343C18.0673 5.1531 18.088 5.19082 18.097 5.21155L19.0146 4.81396ZM19.0671 5.86679C19.1775 5.52106 19.1589 5.147 19.0146 4.81396L18.097 5.21154C18.1451 5.32255 18.1513 5.44724 18.1145 5.56249L19.0671 5.86679ZM18.5058 6.71872C18.6396 6.5552 18.7556 6.41382 18.8438 6.29006C18.9348 6.16224 19.016 6.02676 19.0671 5.8668L18.1145 5.56249C18.1076 5.58401 18.0908 5.62359 18.0293 5.7098C17.965 5.80008 17.874 5.91168 17.7318 6.08548L18.5058 6.71872ZM17.793 7.70721C17.7955 7.68872 17.8128 7.61958 17.937 7.44084C18.0584 7.2661 18.2393 7.0445 18.5058 6.71872L17.7318 6.08548C17.476 6.3982 17.265 6.65547 17.1158 6.87015C16.9694 7.08084 16.8372 7.31168 16.8019 7.5739L17.793 7.70721ZM17.9853 8.1714C17.8424 8.06244 17.7691 7.88524 17.793 7.70721L16.8019 7.5739C16.7301 8.108 16.9503 8.63959 17.3787 8.96645L17.9853 8.1714ZM19.1883 8.36633C18.7694 8.32445 18.4849 8.29562 18.2754 8.25793C18.0612 8.21938 18.0001 8.18271 17.9853 8.1714L17.3787 8.96645C17.5891 9.12693 17.8458 9.19668 18.0983 9.24212C18.3556 9.28843 18.6867 9.32117 19.0888 9.36137L19.1883 8.36633ZM20.1876 8.57187C20.0384 8.49489 19.8852 8.45645 19.7304 8.43046C19.5805 8.4053 19.3985 8.38736 19.1883 8.36633L19.0888 9.36137C19.3122 9.38372 19.4555 9.3983 19.5648 9.41666C19.6692 9.43419 19.7091 9.45026 19.7292 9.46062L20.1876 8.57187ZM20.8949 9.35344C20.7615 9.01593 20.5102 8.73825 20.1876 8.57187L19.7292 9.46061C19.8367 9.51607 19.9205 9.60863 19.965 9.72114L20.8949 9.35344ZM21 10.3682C21 10.157 21.0003 9.97407 20.9901 9.82244C20.9797 9.66584 20.9567 9.50961 20.8949 9.35345L19.965 9.72114C19.9733 9.74215 19.9853 9.78346 19.9924 9.88908C19.9997 9.99968 20 10.1437 20 10.3682H21ZM21 11.6319V10.3682H20V11.6319H21ZM20.895 12.6464C20.9567 12.4903 20.9797 12.3341 20.9901 12.1775C21.0003 12.026 21 11.8431 21 11.6319H20C20 11.8564 19.9997 12.0003 19.9924 12.1109C19.9853 12.2165 19.9733 12.2578 19.965 12.2788L20.895 12.6464ZM20.1875 13.4282C20.5101 13.2618 20.7615 12.984 20.895 12.6464L19.965 12.2788C19.9205 12.3914 19.8367 12.4839 19.7292 12.5394L20.1875 13.4282ZM19.1884 13.6337C19.3986 13.6126 19.5805 13.5947 19.7304 13.5695C19.8851 13.5436 20.0383 13.5051 20.1875 13.4282L19.7292 12.5394C19.7091 12.5498 19.6692 12.5658 19.5648 12.5833C19.4555 12.6017 19.3123 12.6163 19.0889 12.6386L19.1884 13.6337ZM19.2208 13.6293L19.2208 13.6293L19.0564 12.6429L19.0564 12.6429L19.2208 13.6293ZM17.9857 13.8285C18.0006 13.8172 18.0617 13.7805 18.2758 13.742C18.4852 13.7043 18.7697 13.6755 19.1884 13.6337L19.0889 12.6386C18.6869 12.6788 18.356 12.7115 18.0987 12.7578C17.8463 12.8032 17.5897 12.8729 17.3794 13.0333L17.9857 13.8285ZM17.7934 14.2929C17.7694 14.1148 17.8428 13.9375 17.9857 13.8285L17.3794 13.0333C16.9507 13.3602 16.7304 13.8921 16.8023 14.4264L17.7934 14.2929ZM18.506 15.281C18.2395 14.9553 18.0588 14.7338 17.9373 14.5591C17.8132 14.3805 17.7959 14.3113 17.7934 14.2929L16.8023 14.4264C16.8377 14.6885 16.9698 14.9192 17.1162 15.1298C17.2653 15.3444 17.4762 15.6016 17.732 15.9142L18.506 15.281ZM19.0671 16.1326C19.0159 15.9727 18.9348 15.8372 18.8438 15.7095C18.7557 15.5858 18.6397 15.4444 18.506 15.281L17.732 15.9142C17.8741 16.0879 17.9651 16.1995 18.0294 16.2897C18.0908 16.3759 18.1076 16.4155 18.1145 16.437L19.0671 16.1326ZM19.0145 17.1858C19.1589 16.8526 19.1776 16.4784 19.0671 16.1326L18.1145 16.437C18.1514 16.5523 18.1451 16.677 18.097 16.7881L19.0145 17.1858ZM18.3715 17.9773C18.5208 17.828 18.6503 17.6989 18.7503 17.5846C18.8536 17.4665 18.9478 17.3398 19.0145 17.1858L18.097 16.7881C18.088 16.8088 18.0673 16.8465 17.9976 16.9261C17.9247 17.0095 17.8231 17.1115 17.6644 17.2702L18.3715 17.9773ZM17.4779 18.8709L18.3715 17.9773L17.6644 17.2702L16.7708 18.1638L17.4779 18.8709ZM16.6861 19.5141C16.8401 19.4474 16.9669 19.3532 17.085 19.2498C17.1994 19.1498 17.3285 19.0203 17.4779 18.8709L16.7708 18.1638C16.612 18.3226 16.51 18.4242 16.4266 18.4972C16.3469 18.5669 16.3092 18.5876 16.2885 18.5966L16.6861 19.5141ZM15.6332 19.5667C15.9789 19.6771 16.353 19.6585 16.6861 19.5141L16.2885 18.5966C16.1775 18.6447 16.0528 18.6509 15.9375 18.6141L15.6332 19.5667ZM14.7813 19.0054C14.9448 19.1392 15.0862 19.2552 15.2099 19.3434C15.3378 19.4344 15.4732 19.5156 15.6332 19.5667L15.9375 18.6141C15.916 18.6072 15.8764 18.5904 15.7902 18.5289C15.6999 18.4646 15.5883 18.3736 15.4145 18.2314L14.7813 19.0054ZM14.7856 19.0088L14.7856 19.0089L15.4103 18.228L15.4103 18.228L14.7856 19.0088ZM13.7928 18.2926C13.8113 18.2951 13.8805 18.3124 14.0592 18.4366C14.2339 18.558 14.4555 18.7389 14.7813 19.0054L15.4145 18.2314C15.1018 17.9756 14.8446 17.7646 14.6299 17.6154C14.4192 17.469 14.1884 17.3368 13.9262 17.3015L13.7928 18.2926ZM13.3286 18.4849C13.4376 18.3421 13.6148 18.2687 13.7928 18.2926L13.9262 17.3015C13.392 17.2297 12.8604 17.4499 12.5336 17.8784L13.3286 18.4849ZM13.1337 19.6881C13.1756 19.2692 13.2044 18.9846 13.2421 18.7751C13.2807 18.5608 13.3173 18.4997 13.3286 18.4849L12.5336 17.8784C12.3731 18.0887 12.3033 18.3455 12.2579 18.598C12.2116 18.8553 12.1789 19.1865 12.1386 19.5886L13.1337 19.6881ZM12.9281 20.6877C13.0051 20.5385 13.0435 20.3852 13.0695 20.2304C13.0947 20.0805 13.1127 19.8984 13.1337 19.6881L12.1386 19.5886C12.1163 19.8121 12.1017 19.9554 12.0833 20.0648C12.0658 20.1692 12.0497 20.2092 12.0394 20.2292L12.9281 20.6877ZM12.1467 21.3949C12.4841 21.2614 12.7617 21.0102 12.9281 20.6877L12.0394 20.2292C11.9839 20.3367 11.8914 20.4205 11.7789 20.465L12.1467 21.3949ZM11.1316 21.5C11.343 21.5 11.5259 21.5003 11.6776 21.4901C11.8342 21.4797 11.9905 21.4566 12.1467 21.3949L11.7789 20.465C11.7579 20.4733 11.7166 20.4853 11.6109 20.4924C11.5003 20.4997 11.3563 20.5 11.1316 20.5V21.5ZM9.86824 21.5H11.1316V20.5H9.86824V21.5ZM8.85345 21.3949C9.00961 21.4567 9.16585 21.4797 9.32244 21.4901C9.47407 21.5003 9.65696 21.5 9.86824 21.5V20.5C9.64368 20.5 9.49968 20.4997 9.38908 20.4924C9.28347 20.4853 9.24215 20.4733 9.22114 20.465L8.85345 21.3949ZM8.07187 20.6876C8.23824 21.0102 8.51593 21.2615 8.85345 21.3949L9.22114 20.465C9.10863 20.4205 9.01607 20.3367 8.96062 20.2292L8.07187 20.6876ZM7.86634 19.6883C7.88736 19.8985 7.9053 20.0805 7.93046 20.2304C7.95645 20.3852 7.99489 20.5384 8.07187 20.6876L8.96062 20.2292C8.95026 20.2091 8.93419 20.1692 8.91666 20.0648C8.8983 19.9555 8.88372 19.8122 8.86137 19.5888L7.86634 19.6883ZM7.67139 18.4853C7.68271 18.5001 7.71938 18.5612 7.75793 18.7754C7.79562 18.9849 7.82445 19.2695 7.86634 19.6883L8.86137 19.5888C8.82117 19.1867 8.78843 18.8556 8.74212 18.5983C8.69668 18.3458 8.62693 18.0891 8.46644 17.8787L7.67139 18.4853ZM7.20722 18.293C7.38525 18.2691 7.56244 18.3425 7.67139 18.4853L8.46644 17.8787C8.13958 17.4503 7.60801 17.2301 7.07392 17.3019L7.20722 18.293ZM6.21869 19.0058C6.54448 18.7393 6.76609 18.5584 6.94084 18.437C7.11958 18.3128 7.18872 18.2955 7.20722 18.293L7.07392 17.3019C6.8117 17.3372 6.58085 17.4694 6.37015 17.6158C6.15547 17.765 5.89819 17.976 5.58546 18.2319L6.21869 19.0058ZM6.23424 18.9926L6.23426 18.9926L5.56989 18.2452L5.56988 18.2452L6.23424 18.9926ZM5.36673 19.5671C5.5267 19.516 5.66218 19.4349 5.79001 19.3438C5.91377 19.2557 6.05516 19.1396 6.21868 19.0058L5.58544 18.2319C5.41164 18.3741 5.30003 18.4651 5.20976 18.5294C5.12354 18.5908 5.08395 18.6077 5.06244 18.6145L5.36673 19.5671ZM4.31394 19.5146C4.64696 19.6589 5.021 19.6776 5.36673 19.5671L5.06244 18.6145C4.94719 18.6514 4.82251 18.6451 4.71151 18.597L4.31394 19.5146ZM3.52205 18.8713C3.67146 19.0207 3.8006 19.1503 3.91497 19.2503C4.0331 19.3536 4.15985 19.4479 4.31394 19.5146L4.71151 18.597C4.69078 18.5881 4.65306 18.5673 4.57339 18.4977C4.48996 18.4247 4.38796 18.323 4.22916 18.1642L3.52205 18.8713ZM2.62861 17.9779L3.52205 18.8713L4.22916 18.1642L3.33572 17.2708L2.62861 17.9779ZM1.98535 17.186C2.05212 17.3401 2.14632 17.4669 2.24966 17.585C2.34971 17.6994 2.47922 17.8285 2.62861 17.9779L3.33572 17.2708C3.17693 17.112 3.07529 17.01 3.00232 16.9266C2.93262 16.8469 2.9119 16.8092 2.90292 16.7885L1.98535 17.186ZM1.93284 16.1332C1.8224 16.479 1.84106 16.853 1.98535 17.186L2.90292 16.7885C2.85482 16.6775 2.84861 16.5528 2.88542 16.4375L1.93284 16.1332ZM2.49413 15.2813C2.36033 15.4448 2.24432 15.5862 2.15614 15.7099C2.06507 15.8378 1.98395 15.9733 1.93284 16.1332L2.88542 16.4375C2.89229 16.416 2.90915 16.3764 2.97058 16.2902C3.03489 16.1999 3.12588 16.0883 3.26808 15.9145L2.49413 15.2813ZM3.20694 14.2928C3.20445 14.3113 3.18716 14.3804 3.06295 14.5592C2.9415 14.7339 2.76067 14.9555 2.49413 15.2813L3.26808 15.9145C3.52394 15.6018 3.73491 15.3445 3.88411 15.1298C4.03054 14.9192 4.16274 14.6883 4.19801 14.4261L3.20694 14.2928ZM3.01466 13.8286C3.15749 13.9375 3.23088 14.1147 3.20694 14.2928L4.19801 14.4261C4.26986 13.892 4.04966 13.3604 3.62119 13.0335L3.01466 13.8286ZM1.81168 13.6337C2.23051 13.6755 2.51507 13.7044 2.7245 13.7421C2.93871 13.7806 2.99983 13.8173 3.01466 13.8286L3.62119 13.0335C3.41083 12.8731 3.15413 12.8033 2.90161 12.7579C2.64432 12.7116 2.31322 12.6788 1.91118 12.6386L1.81168 13.6337ZM0.812419 13.4281C0.96166 13.5051 1.11482 13.5435 1.2696 13.5695C1.41945 13.5947 1.60145 13.6126 1.81168 13.6337L1.91118 12.6386C1.68774 12.6163 1.54449 12.6017 1.43519 12.5833C1.3308 12.5658 1.29088 12.5497 1.27081 12.5394L0.812419 13.4281ZM0.105071 12.6465C0.238523 12.9841 0.489836 13.2618 0.812419 13.4281L1.27081 12.5394C1.16328 12.4839 1.07951 12.3914 1.03502 12.2789L0.105071 12.6465ZM0 11.6318C0 11.8431 -0.000258565 12.0259 0.00986728 12.1776C0.0203254 12.3341 0.043329 12.4904 0.105071 12.6465L1.03502 12.2789C1.02672 12.2578 1.0147 12.2165 1.00764 12.1109C1.00026 12.0003 1 11.8563 1 11.6318H0ZM0 10.3683V11.6318H1V10.3683H0ZM0.105126 9.35333C0.043352 9.50953 0.0203362 9.66579 0.00987247 9.82242C-0.000258744 9.97408 0 10.157 0 10.3683H1C1 10.1437 1.00026 9.9997 1.00765 9.88908C1.01471 9.78344 1.02673 9.74211 1.03504 9.7211L0.105126 9.35333ZM0.812284 8.57193C0.489811 8.73829 0.238575 9.0159 0.105126 9.35333L1.03504 9.7211C1.07952 9.60863 1.16327 9.51609 1.27076 9.46063L0.812284 8.57193ZM1.8118 8.36633C1.60152 8.38735 1.41947 8.4053 1.26957 8.43047C1.11476 8.45647 0.961559 8.49492 0.812285 8.57193L1.27076 9.46063C1.29084 9.45027 1.33076 9.4342 1.43518 9.41666C1.54452 9.3983 1.6878 9.38371 1.9113 9.36136L1.8118 8.36633ZM1.86155 8.36384H1.86155V9.36384H1.86155V8.36384ZM1.86156 8.36384H1.86155V9.36384H1.86156V8.36384ZM3.01509 8.17132C3.00025 8.18265 2.93914 8.21933 2.72487 8.25789C2.51538 8.2956 2.23074 8.32443 1.81181 8.36633L1.91131 9.36136C2.31346 9.32115 2.64464 9.2884 2.902 9.24208C3.15458 9.19662 3.41135 9.12684 3.62174 8.9663L3.01509 8.17132ZM3.20732 7.70725C3.23124 7.88524 3.15786 8.06238 3.0151 8.17132L3.62174 8.9663C4.05004 8.63946 4.27016 8.10804 4.19841 7.57408L3.20732 7.70725ZM2.4943 6.71844C2.76093 7.04432 2.94182 7.26599 3.0633 7.4408C3.18756 7.61959 3.20484 7.68875 3.20732 7.70725L4.19841 7.57408C4.16317 7.31178 4.03094 7.08087 3.88448 6.87012C3.73524 6.65537 3.5242 6.39802 3.26826 6.0852L2.4943 6.71844ZM1.93283 5.86614C1.98393 6.02617 2.06508 6.16171 2.15618 6.28959C2.24439 6.4134 2.36045 6.55484 2.4943 6.71844L3.26826 6.0852C3.12599 5.91132 3.03497 5.79966 2.97063 5.70935C2.90918 5.6231 2.89232 5.58349 2.88545 5.56197L1.93283 5.86614ZM1.98532 4.81371C1.84112 5.14663 1.82247 5.52052 1.93283 5.86614L2.88544 5.56197C2.84866 5.44676 2.85488 5.32213 2.90294 5.21116L1.98532 4.81371ZM2.62878 4.02153C2.47933 4.17099 2.34977 4.30018 2.24969 4.41459C2.14632 4.53276 2.05209 4.65955 1.98532 4.81371L2.90294 5.21116C2.91192 5.19042 2.93264 5.15269 3.00236 5.07299C3.07536 4.98953 3.17704 4.88749 3.33589 4.72864L2.62878 4.02153ZM3.5221 3.12822L2.62878 4.02154L3.33589 4.72864L4.22921 3.83532L3.5221 3.12822ZM3.5221 3.12821L3.5221 3.12822L4.22921 3.83532L4.22921 3.83532L3.5221 3.12821ZM4.31398 2.48494C4.15989 2.55171 4.03315 2.64591 3.91502 2.74925C3.80065 2.8493 3.6715 2.97881 3.5221 3.12821L4.22921 3.83532C4.388 3.67653 4.49001 3.57489 4.57343 3.50191C4.65311 3.43221 4.69082 3.41149 4.71155 3.40251L4.31398 2.48494ZM5.36677 2.43243C5.02105 2.32199 4.647 2.34065 4.31398 2.48494L4.71155 3.40251C4.82256 3.35442 4.94724 3.3482 5.06248 3.38501L5.36677 2.43243ZM6.21882 2.99378C6.05526 2.85997 5.91386 2.74394 5.79008 2.65575C5.66225 2.56467 5.52675 2.48354 5.36677 2.43243L5.06248 3.38501C5.08399 3.39188 5.12359 3.40874 5.20982 3.47018C5.30011 3.53451 5.41175 3.62551 5.58558 3.76774L6.21882 2.99378ZM7.20718 3.70654C7.1887 3.70405 7.11957 3.68676 6.94085 3.56255C6.76613 3.44111 6.54455 3.26029 6.21882 2.99378L5.58558 3.76774C5.89826 4.02357 6.1555 4.23451 6.37013 4.38369C6.58078 4.5301 6.81156 4.66229 7.07371 4.69759L7.20718 3.70654ZM7.67149 3.51422C7.56252 3.6571 7.38526 3.73052 7.20718 3.70654L7.07371 4.69759C7.60797 4.76954 8.13975 4.54927 8.46665 4.12062L7.67149 3.51422ZM7.86635 2.31155C7.82448 2.73026 7.79566 3.01474 7.75799 3.22412C7.71945 3.43828 7.6828 3.49938 7.67149 3.51422L8.46665 4.12062C8.62704 3.9103 8.69676 3.65367 8.74218 3.40121C8.78847 3.14399 8.8212 2.81299 8.86139 2.41106L7.86635 2.31155ZM8.07179 1.31256C7.99485 1.46176 7.95643 1.61489 7.93046 1.76962C7.9053 1.91943 7.88737 2.10139 7.86635 2.31155L8.86139 2.41106C8.88373 2.18768 8.89831 2.04447 8.91665 1.93519C8.93417 1.83083 8.95024 1.79092 8.96059 1.77085L8.07179 1.31256ZM8.85361 0.605014C8.51596 0.738471 8.23818 0.989863 8.07179 1.31255L8.96059 1.77085C9.01605 1.66329 9.10865 1.57949 9.2212 1.535L8.85361 0.605014ZM9.8681 0.5C9.65688 0.5 9.47405 0.499742 9.32247 0.509862C9.16592 0.520314 9.00974 0.543305 8.85361 0.605014L9.2212 1.535C9.2422 1.5267 9.2835 1.51469 9.38909 1.50764C9.49965 1.50026 9.6436 1.5 9.8681 1.5V0.5ZM11.1318 0.5H9.8681V1.5H11.1318V0.5ZM12.1465 0.605072C11.9904 0.543329 11.8341 0.520326 11.6776 0.509867C11.5259 0.499741 11.3431 0.5 11.1318 0.5V1.5C11.3563 1.5 11.5003 1.50026 11.6109 1.50764C11.7165 1.5147 11.7578 1.52672 11.7789 1.53502L12.1465 0.605072ZM12.9281 1.31242C12.7618 0.989837 12.4841 0.738524 12.1465 0.605072L11.7789 1.53502C11.8914 1.57951 11.9839 1.66328 12.0394 1.7708L12.9281 1.31242ZM14 11C14 12.933 12.433 14.5 10.5 14.5V15.5C12.9853 15.5 15 13.4853 15 11H14ZM10.5 7.5C12.433 7.5 14 9.067 14 11H15C15 8.51472 12.9853 6.5 10.5 6.5V7.5ZM7 11C7 9.067 8.567 7.5 10.5 7.5V6.5C8.01472 6.5 6 8.51472 6 11H7ZM10.5 14.5C8.567 14.5 7 12.933 7 11H6C6 13.4853 8.01472 15.5 10.5 15.5V14.5Z" fill="#33363F"/>
</svg>
